<?xml version="1.0" encoding="iso-8859-1"?>
<!-- Generator: Adobe Illustrator 16.0.0, SVG Export Plug-In . SVG Version: 6.00 Build 0)  -->
<!DOCTYPE svg PUBLIC "-//W3C//DTD SVG 1.1//EN" "http://www.w3.org/Graphics/SVG/1.1/DTD/svg11.dtd">
<svg version="1.1" id="Capa_1" xmlns="http://www.w3.org/2000/svg" xmlns:xlink="http://www.w3.org/1999/xlink" x="0px" y="0px"
	 width="31.934px" height="31.934px" viewBox="0 0 31.934 31.934" style="enable-background:new 0 0 31.934 31.934;"
	 xml:space="preserve">
<g>
	<g>
		<path d="M12.527,0L8.736,1.176H0.436v28.245h1.54V2.716h1.793L2.593,3.081v26.34l9.935,2.465V2.716h4.395v26.705h1.541V1.176
			h-5.935L12.527,0L12.527,0z M10.2,19.229c-0.5,0-0.905-0.492-0.905-1.098S9.7,17.033,10.2,17.033s0.905,0.49,0.905,1.098
			C11.104,18.736,10.7,19.229,10.2,19.229z"/>
		<circle cx="27.955" cy="5.503" r="3.542"/>
		<polygon points="23.045,30.057 23.019,30.29 22.814,30.268 21.611,30.294 21.484,31.386 22.481,31.594 23.681,31.539 
			23.67,31.732 24.972,31.886 25.115,30.668 25.129,30.538 25.154,30.329 25.172,30.331 26.713,25.271 24.512,25.115 		"/>
		<polygon points="31.248,30.036 31.227,29.889 31.24,29.886 30.072,25.658 29.842,20.417 30.231,20.361 30.231,9.568 26.75,9.568 
			25.172,9.568 25.278,15.493 26.679,9.932 27.025,10.047 29.219,10.6 29.461,10.66 29.399,10.903 27.08,20.1 27.019,20.342 
			26.775,20.28 26.717,20.254 26.711,20.484 28.805,20.583 28.509,25.355 27.836,25.328 29.151,30.372 28.949,30.404 27.812,30.848 
			27.986,31.934 28.986,31.771 30.127,31.393 30.168,31.583 31.465,31.376 31.271,30.168 		"/>
		<path d="M28.416,20.842l-2.015-0.119l0.041-0.82l0.313,0.082l2.279-9.055L27.017,10.4l-1.647,6.403l0.002,0.096l-0.635,2.556
			l0.534,0.14l-0.489,0.182l-0.054,0.857l-2.263-0.16l-0.225,4.203l5.938,0.397L28.416,20.842z M25.904,20.592l-0.662-0.04
			l0.022-0.394l0.662,0.039L25.904,20.592z"/>
	</g>
</g>
<g>
</g>
<g>
</g>
<g>
</g>
<g>
</g>
<g>
</g>
<g>
</g>
<g>
</g>
<g>
</g>
<g>
</g>
<g>
</g>
<g>
</g>
<g>
</g>
<g>
</g>
<g>
</g>
<g>
</g>
</svg>
