<?xml version="1.0" encoding="iso-8859-1"?>
<!-- Generator: Adobe Illustrator 19.0.0, SVG Export Plug-In . SVG Version: 6.00 Build 0)  -->
<svg version="1.1" id="Layer_1" xmlns="http://www.w3.org/2000/svg" xmlns:xlink="http://www.w3.org/1999/xlink" x="0px" y="0px"
	 viewBox="0 0 512 512" style="enable-background:new 0 0 512 512;" xml:space="preserve">
<g>
	<g>
		<path d="M281.6,245.76c-11.29,0-20.48,9.185-20.48,20.48s9.19,20.48,20.48,20.48c11.29,0,20.48-9.185,20.48-20.48
			S292.89,245.76,281.6,245.76z"/>
	</g>
</g>
<g>
	<g>
		<path d="M414.72,491.52V10.24c0-5.655-4.58-10.24-10.24-10.24H128v0.262c-2.237,0.003-4.445,0.476-6.25,1.868
			c-2.52,1.94-3.99,4.935-3.99,8.11v481.28H46.08V512H128c0.87,0,1.75-0.11,2.61-0.335l194.56-51.2
			c4.49-1.185,7.63-5.255,7.63-9.905V61.44c0-4.65-3.14-8.72-7.63-9.905L207.163,20.48H394.24v481.28
			c0,5.655,4.58,10.24,10.24,10.24h61.44v-20.48H414.72z M312.32,69.335v373.33l-174.08,45.81V23.525L312.32,69.335z"/>
	</g>
</g>
<g>
</g>
<g>
</g>
<g>
</g>
<g>
</g>
<g>
</g>
<g>
</g>
<g>
</g>
<g>
</g>
<g>
</g>
<g>
</g>
<g>
</g>
<g>
</g>
<g>
</g>
<g>
</g>
<g>
</g>
</svg>
