<?xml version="1.0" encoding="iso-8859-1"?>
<!-- Generator: Adobe Illustrator 16.0.0, SVG Export Plug-In . SVG Version: 6.00 Build 0)  -->
<!DOCTYPE svg PUBLIC "-//W3C//DTD SVG 1.1//EN" "http://www.w3.org/Graphics/SVG/1.1/DTD/svg11.dtd">
<svg version="1.1" id="Capa_1" xmlns="http://www.w3.org/2000/svg" xmlns:xlink="http://www.w3.org/1999/xlink" x="0px" y="0px"
	 width="31.766px" height="31.766px" viewBox="0 0 31.766 31.766" style="enable-background:new 0 0 31.766 31.766;"
	 xml:space="preserve">
<g>
	<g>
		<polygon points="19.501,30.477 19.501,27.197 17.546,27.197 17.546,27.191 14.64,27.191 14.64,23.913 9.16,23.913 9.16,20.65 
			3.997,20.65 3.997,19.428 0.765,21.296 3.997,23.162 3.997,21.939 7.869,21.939 7.869,25.218 11.824,25.218 11.824,25.203 
			13.351,25.203 13.351,28.48 13.38,28.48 13.38,28.486 18.21,28.486 18.21,31.766 31.001,31.766 31.001,30.477 		"/>
		<path d="M13.738,6.413c1.383,0,2.518-1.013,2.729-2.335l1.021-1.438l-1.149-0.676L16.066,0.61l-1.153,0.474L13.289,0L12.68,0.948
			l-1.49-0.271l0.318,1.327c-0.337,0.459-0.544,1.021-0.544,1.635C10.964,5.172,12.207,6.413,13.738,6.413z"/>
		<polygon points="15.258,12.187 15.258,8.25 13.797,8.262 13.759,10.833 10.485,13.994 11.589,15.429 		"/>
		<path d="M12.985,22.807l0.541-4.604l1.022-0.748l0.427,3.552l2.422,4.858l-0.548,0.23l0.277,0.666l2.188-0.919l-0.084-0.2
			l0.007-0.002l-2.491-5.242l-0.036-0.926l4.06-1.461l-1.395-3.886l-0.057,0.021l-2.575-4.825V6.83h-1.331l-0.002-0.005L15.407,6.83
			h-2.685v4.595l0.754-0.761l-0.007-2.681l1.931-0.03l0.224,0.417v4.146l-0.023,0.004l-2.878,2.444v0.854h1.247l0.125,0.28
			l-1.133,0.019l-1.149,1.894l-0.709,4.561l-0.577-0.081l-0.102,0.715l2.493,0.313L12.985,22.807z M16.745,10.476l2.058,3.856
			l-2.058,0.739V10.476z M14.67,15.818l-0.095,0.033l-0.015-0.033H14.67z"/>
	</g>
</g>
<g>
</g>
<g>
</g>
<g>
</g>
<g>
</g>
<g>
</g>
<g>
</g>
<g>
</g>
<g>
</g>
<g>
</g>
<g>
</g>
<g>
</g>
<g>
</g>
<g>
</g>
<g>
</g>
<g>
</g>
</svg>
