<?xml version="1.0" encoding="iso-8859-1"?>
<!-- Generator: Adobe Illustrator 19.0.0, SVG Export Plug-In . SVG Version: 6.00 Build 0)  -->
<svg version="1.1" id="Capa_1" xmlns="http://www.w3.org/2000/svg" xmlns:xlink="http://www.w3.org/1999/xlink" x="0px" y="0px"
	 viewBox="0 0 512 512" style="enable-background:new 0 0 512 512;" xml:space="preserve">
<path style="fill:#303C42;" d="M421.802,150.083c-5.268-6.488-11.18-12.263-17.533-17.397C395.909,57.924,331.81,0,256.01,0
	c-82.344,0-149.333,66.99-149.333,149.333c0,5.299,0.645,10.594,1.204,15.883c-7.145,4.643-13.908,9.898-19.673,16.388
	c-18.198,20.49-26.76,47.99-23.5,75.438c4.958,41.74,38.615,76.688,80.031,83.104c5.146,0.802,10.271,1.198,15.354,1.198
	c11.624,0,22.982-2.148,33.747-6.232c6.951,12.288,19.503,37.474,19.503,59.555c0,34.906-9.917,80.167-28.875,99.125
	c-3.052,3.052-3.969,7.635-2.313,11.625c1.646,3.99,5.542,6.583,9.854,6.583h128c4.313,0,8.208-2.594,9.854-6.583
	c1.656-3.99,0.74-8.573-2.313-11.625c-18.958-18.958-28.875-64.219-28.875-99.125c0-22.534,12.296-44.564,18.441-54.173
	c12.263,1.428,24.837,0.973,37.402-1.535c44.958-8.948,81.458-44.979,90.833-89.667
	C452.792,213.833,444.208,177.677,421.802,150.083z"/>
<path style="fill:#8D6E63;" d="M299.146,490.667h-86.271c14.896-26.865,21.802-65.802,21.802-96
	c0-25.84-12.944-53.201-21.098-67.949c20.012-7.885,44.674-6.763,69.525,4.439c3.93,1.771,8.021,3.03,12.094,4.342
	c-7.678,13.358-17.854,35.477-17.854,59.168C277.344,424.865,284.25,463.802,299.146,490.667z"/>
<path style="opacity:0.1;enable-background:new    ;" d="M252.01,393.333c0,30.272,1.992,67.339,12.781,97.333h34.354
	c-14.896-26.865-21.802-65.802-21.802-96c0-23.691,10.176-45.81,17.854-59.168c-4.073-1.313-8.164-2.572-12.094-4.342
	c-5.743-2.589-11.465-4.509-17.133-6.035C258.397,340.902,252.01,366.474,252.01,393.333z"/>
<path style="fill:#7CB342;" d="M424.479,244.917c-7.646,36.427-37.438,65.813-74.125,73.125
	c-20.167,4.021-40.406,1.802-58.479-6.344c-34.104-15.344-69.125-15.667-96.073-0.844c-14.51,7.969-31.01,10.823-47.792,8.208
	c-32.146-4.979-58.271-32.115-62.114-64.542c-2.583-21.719,3.906-42.583,18.271-58.75c14.167-15.958,34.521-25.104,55.844-25.104
	c5.896,0,10.667-4.771,10.667-10.667c0-5.896-4.771-10.667-10.667-10.667c-10.915,0-21.46,2.344-31.556,5.882
	c-0.09-1.967-0.444-3.919-0.444-5.882c0-70.583,57.417-128,128-128c58.913,0,109.604,40.81,123.897,96.185
	c-15.221-7.038-31.941-10.852-49.23-10.852c-5.896,0-10.667,4.771-10.667,10.667S324.781,128,330.677,128
	c29.052,0,56.229,12.948,74.562,35.531S430.583,215.771,424.479,244.917z"/>
<path style="opacity:0.1;enable-background:new    ;" d="M405.24,163.531c-4.984-6.139-10.668-11.495-16.819-16.143
	c6.457,17.159,8.031,36.1,4.103,54.857c-7.646,36.427-37.438,65.813-74.125,73.125c-20.167,4.021-40.406,1.802-58.479-6.344
	c-34.104-15.344-69.125-15.667-96.073-0.844c-14.51,7.969-31.01,10.823-47.792,8.208c-10.107-1.565-19.49-5.52-27.901-10.941
	c7.747,27.424,31.408,49.207,59.857,53.613c16.781,2.615,33.281-0.24,47.792-8.208c26.948-14.823,61.969-14.5,96.073,0.844
	c18.073,8.146,38.313,10.365,58.479,6.344c36.688-7.313,66.479-36.698,74.125-73.125
	C430.583,215.771,423.573,186.115,405.24,163.531z"/>
<linearGradient id="SVGID_1_" gradientUnits="userSpaceOnUse" x1="-43.1024" y1="638.0338" x2="-27.5212" y2="630.7678" gradientTransform="matrix(21.3333 0 0 -21.3333 996.3333 13791.667)">
	<stop  offset="0" style="stop-color:#FFFFFF;stop-opacity:0.2"/>
	<stop  offset="1" style="stop-color:#FFFFFF;stop-opacity:0"/>
</linearGradient>
<path style="fill:url(#SVGID_1_);" d="M421.802,150.083c-5.268-6.488-11.18-12.263-17.533-17.397C395.909,57.924,331.81,0,256.01,0
	c-82.344,0-149.333,66.99-149.333,149.333c0,5.299,0.645,10.594,1.204,15.883c-7.145,4.643-13.908,9.898-19.673,16.388
	c-18.198,20.49-26.76,47.99-23.5,75.438c4.958,41.74,38.615,76.688,80.031,83.104c5.146,0.802,10.271,1.198,15.354,1.198
	c11.624,0,22.982-2.148,33.747-6.232c6.951,12.288,19.503,37.474,19.503,59.555c0,34.906-9.917,80.167-28.875,99.125
	c-3.052,3.052-3.969,7.635-2.313,11.625c1.646,3.99,5.542,6.583,9.854,6.583h128c4.313,0,8.208-2.594,9.854-6.583
	c1.656-3.99,0.74-8.573-2.313-11.625c-18.958-18.958-28.875-64.219-28.875-99.125c0-22.534,12.296-44.564,18.441-54.173
	c12.263,1.428,24.837,0.973,37.402-1.535c44.958-8.948,81.458-44.979,90.833-89.667
	C452.792,213.833,444.208,177.677,421.802,150.083z"/>
<g>
</g>
<g>
</g>
<g>
</g>
<g>
</g>
<g>
</g>
<g>
</g>
<g>
</g>
<g>
</g>
<g>
</g>
<g>
</g>
<g>
</g>
<g>
</g>
<g>
</g>
<g>
</g>
<g>
</g>
</svg>
