<?xml version="1.0" encoding="iso-8859-1"?>
<!-- Generator: Adobe Illustrator 16.0.0, SVG Export Plug-In . SVG Version: 6.00 Build 0)  -->
<!DOCTYPE svg PUBLIC "-//W3C//DTD SVG 1.1//EN" "http://www.w3.org/Graphics/SVG/1.1/DTD/svg11.dtd">
<svg version="1.1" id="Capa_1" xmlns="http://www.w3.org/2000/svg" xmlns:xlink="http://www.w3.org/1999/xlink" x="0px" y="0px"
	 width="389.869px" height="389.869px" viewBox="0 0 389.869 389.869" style="enable-background:new 0 0 389.869 389.869;"
	 xml:space="preserve">
<g>
	<path d="M382.751,59.883L348.812,1.081C348.409,0.41,347.695,0,346.953,0c-0.79,0-1.499,0.41-1.873,1.081l-33.938,58.802
		c-0.23,0.342-0.296,0.711-0.296,1.081v59.672h-31.555V60.969c0-0.369-0.111-0.744-0.308-1.081L245.041,1.086
		c-0.399-0.67-1.111-1.081-1.86-1.081c-0.788,0-1.498,0.41-1.872,1.081l-33.968,58.802c-0.155,0.342-0.265,0.711-0.265,1.081v59.667
		h-29.304V60.969c0-0.369-0.118-0.744-0.309-1.081L143.489,1.086c-0.369-0.67-1.081-1.081-1.871-1.081
		c-0.745,0-1.457,0.41-1.828,1.081l-33.979,58.802c-0.183,0.342-0.295,0.711-0.295,1.081v59.667H79.04V60.969
		c0-0.369-0.068-0.744-0.296-1.081L44.804,1.086c-0.416-0.67-1.081-1.081-1.871-1.081c-0.78,0-1.459,0.41-1.86,1.081L7.133,59.888
		C6.902,60.23,6.823,60.6,6.823,60.969v59.667v28.446v125.94v28.449v84.269c0,1.159,0.978,2.129,2.138,2.129h67.95
		c1.16,0,2.124-0.97,2.124-2.129v-84.269h26.477v84.269c0,1.159,0.974,2.129,2.167,2.129h67.917c1.193,0,2.169-0.97,2.169-2.129
		v-84.269h29.305v84.269c0,1.159,0.931,2.129,2.124,2.129h67.95c1.162,0,2.135-0.97,2.135-2.129v-84.269h31.558v84.269
		c0,1.159,0.962,2.129,2.124,2.129h67.95c1.159,0,2.134-0.97,2.134-2.129v-84.269v-28.449v-125.94v-28.446V60.969
		C383.056,60.594,382.935,60.225,382.751,59.883z M40.971,295.258c-4.179,0-7.576-3.398-7.576-7.585c0-4.218,3.39-7.616,7.576-7.616
		c4.193,0,7.587,3.398,7.587,7.616C48.553,291.859,45.164,295.258,40.971,295.258z M40.971,137.921
		c-4.179,0-7.576-3.398-7.576-7.581c0-4.222,3.39-7.617,7.576-7.617c4.193,0,7.587,3.396,7.587,7.617
		C48.553,134.523,45.164,137.921,40.971,137.921z M105.527,275.022H79.052v-125.94h26.475V275.022z M143.579,295.258
		c-4.19,0-7.587-3.398-7.587-7.585c0-4.218,3.39-7.616,7.587-7.616c4.182,0,7.615,3.398,7.615,7.616
		C151.194,291.859,147.761,295.258,143.579,295.258z M143.579,137.921c-4.19,0-7.587-3.398-7.587-7.581
		c0-4.222,3.39-7.617,7.587-7.617c4.182,0,7.615,3.396,7.615,7.617C151.194,134.523,147.761,137.921,143.579,137.921z
		 M207.089,275.022h-29.306v-125.94h29.306V275.022z M245.204,295.258c-4.222,0-7.616-3.398-7.616-7.585
		c0-4.218,3.395-7.616,7.616-7.616c4.182,0,7.591,3.398,7.591,7.616C252.79,291.859,249.386,295.258,245.204,295.258z
		 M245.204,137.921c-4.222,0-7.616-3.398-7.616-7.581c0-4.222,3.395-7.617,7.616-7.617c4.182,0,7.591,3.396,7.591,7.617
		C252.79,134.523,249.386,137.921,245.204,137.921z M310.847,275.022h-31.55v-125.94h31.55V275.022z M347.807,295.258
		c-4.215,0-7.619-3.398-7.619-7.585c0-4.218,3.404-7.616,7.619-7.616c4.179,0,7.583,3.398,7.583,7.616
		C355.39,291.859,351.985,295.258,347.807,295.258z M347.807,137.921c-4.215,0-7.619-3.398-7.619-7.581
		c0-4.222,3.404-7.617,7.619-7.617c4.179,0,7.583,3.396,7.583,7.617C355.39,134.523,351.985,137.921,347.807,137.921z"/>
</g>
<g>
</g>
<g>
</g>
<g>
</g>
<g>
</g>
<g>
</g>
<g>
</g>
<g>
</g>
<g>
</g>
<g>
</g>
<g>
</g>
<g>
</g>
<g>
</g>
<g>
</g>
<g>
</g>
<g>
</g>
</svg>
