<?xml version="1.0" encoding="iso-8859-1"?>
<!-- Generator: Adobe Illustrator 19.0.0, SVG Export Plug-In . SVG Version: 6.00 Build 0)  -->
<svg version="1.1" id="Layer_1" xmlns="http://www.w3.org/2000/svg" xmlns:xlink="http://www.w3.org/1999/xlink" x="0px" y="0px"
	 viewBox="0 0 512 512" style="enable-background:new 0 0 512 512;" xml:space="preserve">
<g>
	<g>
		<g>
			<path d="M501.333,42.667H10.667C4.777,42.667,0,47.442,0,53.333v405.333c0,5.891,4.777,10.667,10.667,10.667h490.667
				c5.89,0,10.667-4.775,10.667-10.667V53.333C512,47.442,507.224,42.667,501.333,42.667z M258.489,64H400.71v80H258.489V64z
				 M111.289,64h125.867v80H111.289V64z M21.333,64h68.622v80H21.333V64z M21.333,165.333H327.11v80H184.889v-15.289
				c0-5.891-4.777-10.667-10.667-10.667s-10.667,4.776-10.667,10.667v15.289H21.333V165.333z M237.155,266.667v80H111.289v-80
				H237.155z M21.333,266.667h68.622v80H21.333V266.667z M163.555,448H21.333v-80h142.222V448z M327.11,448H184.889v-80h62.933
				c5.89,0,10.667-4.775,10.667-10.667v-90.667H400.71v80h-78.044c-5.89,0-10.667,4.775-10.667,10.667
				c0,5.891,4.777,10.667,10.667,10.667h4.444V448z M490.667,448H348.444v-80h142.223V448z M490.667,346.667h-68.623v-80h68.623
				V346.667z M490.667,245.333H348.444v-80h142.223V245.333z M490.667,144h-68.623V64h68.623V144z"/>
			<path d="M287.11,346.667h-1.067c-5.89,0-10.667,4.775-10.667,10.667c0,5.891,4.777,10.667,10.667,10.667h1.067
				c5.89,0,10.667-4.775,10.667-10.667C297.777,351.442,293.001,346.667,287.11,346.667z"/>
			<path d="M174.222,204.8c5.89,0,10.667-4.775,10.667-10.667v-1.067c0-5.891-4.777-10.667-10.667-10.667
				s-10.667,4.775-10.667,10.667v1.067C163.555,200.025,168.332,204.8,174.222,204.8z"/>
		</g>
	</g>
</g>
<g>
</g>
<g>
</g>
<g>
</g>
<g>
</g>
<g>
</g>
<g>
</g>
<g>
</g>
<g>
</g>
<g>
</g>
<g>
</g>
<g>
</g>
<g>
</g>
<g>
</g>
<g>
</g>
<g>
</g>
</svg>
